<svg version="1.2" xmlns="http://www.w3.org/2000/svg" viewBox="0 0 1500 1500" width="1500" height="1500">
	<title>logo-white-svg</title>
	<style>
		.s0 { fill: #000000 } 
		.s1 { fill: #ffffff } 
		.s2 { fill: #ffffff;stroke: #000000;stroke-width: 2.5 } 
	</style>
	<path id="Layer" class="s0" d="m0 0h1500v1500h-1500z"/>
	<g id="Layer">
		<g id="Layer">
			<g id="tight-bounds">
				<g id="Layer">
					<g id="Layer">
						<g id="Layer">
						</g>
					</g>
					<g id="Layer">
						<g id="Layer">
							<g id="Layer">
								<g id="Layer">
									<g id="Layer">
										<g id="Layer">
											<g id="Layer">
												<g id="Layer">
													<g id="Layer">
														<g id="Layer">
															<g id="textblocktransform">
																<g id="textblock">
																	<g id="Layer">
																		<g id="Layer">
																			<g id="Layer">
																				<g id="Layer">
																					<path id="text-0" class="s1" d="m193 1079q-41.7 0-74.5-30.7-33.1-30.5-33.1-84.9 0-18.5 5.8-46.2 5.7-27.8 23.8-49.8 17.8-21.9 53.7-21.9-15.1 27.7-24.3 60.6-9.3 33-9.3 55 0 18.5 5.8 41.6 5.8 23.2 20.4 39.3 14.3 16.2 39.8 16.2 43.9 0 82.1-37 38.2-37 73.6-99.4 35.2-62.4 69.9-139.9 12.7-26.6 27.8-65.9 15-39.3 31.2-84 16.2-44.4 31.2-87.1 15.1-42.8 25.5-75.9 10.4-32.8 13.9-47.9 16.2 17.4 21.5 39.3 5.1 22 5.1 47.5 0 42.7-22.5 105.2-22.6 62.4-63.1 164.2-18.5 48.5-45.2 101.7-26.6 53.2-62.9 98.3-36.6 45.1-84.5 73.3-48.1 28.4-111.7 28.4zm425.8-17.3q-33.6 0-54-12.3-20.1-12-28.9-28.9-8.5-16.6-8.5-30.5 0-57.8 32.8-127.2 33.1-69.4 75.9-137.6 28.9-46.2 59-101 30.1-55.1 50.9-105.5 20.9-50.2 20.9-83.7 6.9-2.3 10.4-2.3 18.5 0 28.9 22 10.4 21.9 10.4 40.4 0 18.5-11.6 49.1-11.5 30.7-30.1 66.6-25.4 49.7-57.8 103.3-32.4 53.9-59 103.6-9.3 18.5-25.5 47.9-16.2 29.6-28.9 60.1-12.7 30.8-12.7 53.9 0 28.9 31.2 28.9 39.4 0 79.2-9.2 40-9.3 81.6-9.3 31.3 0 54.9 5.8 23.8 5.8 25 33.5-3.5-1.1-7.7-1.1-3.9 0-8.5 0-22 0-55.1 5.1-32.8 5.3-67.1 11.5-34 6.5-62.9 11.6-29 5.3-42.8 5.3zm499.8-453.3q-12.7 0-20.8-8.7-8.1-8.6-8.1-20.2 0-17.3 12-29.6 12.3-12 27.3-12 15 0 23.6 9.7 8.8 10 6.5 25-3.5 15-14.6 25.4-10.9 10.4-25.9 10.4zm-158.5 456.8q-25.5 0-44-16.9-18.5-16.7-18.5-57.1 0-17.4 3.5-38.2 10.4-54.3 34-104.1 23.8-49.7 46.3-86.2 22.6-36.3 29.6-47.9 5.8-11.5 30.1-22.6 24.3-10.9 40.5-10.9 13.8 0 13.8 9.2 0 8.1-5.7 15.1-17.4 27.7-40.1 62.9-22.4 35.4-43.3 74.7-20.8 39.3-34.7 77.4-13.8 38.2-13.8 70.6 0 17.3 6.2 27.7 6.5 10.4 23.8 10.4 18.5 0 42.8-18 24.3-17.8 46.8-40.5 22.7-22.4 33.1-35.1 11.6-12.8 22.4-24.3 11.1-11.6 20.4-24.3 3.5-3.5 5.8-3.5 6.9 0 6.9 10.4 0 5.8-4.6 10.4-12.7 15.1-25.5 30.6-12.7 15.7-26.6 30.7-18.5 22-41.6 45.1-23.2 23.1-49.8 38.6-26.6 15.8-57.8 15.8z"/>
																				</g>
																			</g>
																		</g>
																	</g>
																</g>
															</g>
														</g>
													</g>
												</g>
											</g>
										</g>
									</g>
								</g>
							</g>
							<g id="Layer">
								<path id="Layer" class="s2" d="m838.2 204c301.7 0 546.4 244.5 546.4 546.1 0 301.6-244.7 546.1-546.4 546.1-140.2 0-268.1-52.8-364.8-139.5h46.1c87.8 68.8 198.4 109.8 318.7 109.8 285.3 0 516.7-231.2 516.7-516.4 0-285.2-231.4-516.4-516.7-516.4-120.2 0-230.9 41-318.7 109.8h-46.1c96.7-86.8 224.6-139.5 364.8-139.5z"/>
							</g>
						</g>
					</g>
				</g>
			</g>
		</g>
	</g>
</svg>