<svg version="1.2" xmlns="http://www.w3.org/2000/svg" viewBox="0 0 1500 1500" width="1500" height="1500">
	<title>logo-black-svg</title>
	<style>
		.s0 { fill: #ffffff } 
		.s1 { fill: #000000 } 
		.s2 { fill: #000000;stroke: #000000;stroke-width: 2.5 } 
		.s3 { fill: none } 
	</style>
	<path id="Layer" class="s0" d="m0 0h1500v1500h-1500z"/>
	<g id="Layer">
		<g id="Layer">
			<g id="tight-bounds">
				<g id="Layer">
					<g id="Layer">
						<g id="Layer">
						</g>
					</g>
					<g id="Layer">
						<g id="Layer">
							<g id="Layer">
								<g id="Layer">
									<g id="Layer">
										<g id="Layer">
											<g id="Layer">
												<g id="Layer">
													<g id="Layer">
														<g id="Layer">
															<g id="textblocktransform">
																<g id="textblock">
																	<g id="Layer">
																		<g id="Layer">
																			<g id="Layer">
																				<g id="Layer">
																					<path id="text-0" class="s1" d="m206.3 1063.8q-39.7 0-71.1-29.3-31.6-29.1-31.6-81 0-17.6 5.6-44.1 5.5-26.5 22.7-47.4 17-21 51.2-21-14.3 26.5-23.2 57.8-8.8 31.6-8.8 52.5 0 17.7 5.5 39.7 5.5 22.1 19.5 37.5 13.6 15.5 37.9 15.5 42 0 78.4-35.3 36.4-35.3 70.2-94.9 33.6-59.6 66.7-133.5 12.1-25.3 26.5-62.8 14.3-37.5 29.8-80.1 15.4-42.4 29.8-83.2 14.3-40.8 24.3-72.4 9.9-31.3 13.2-45.6 15.5 16.5 20.5 37.5 4.9 20.9 4.9 45.2 0 40.8-21.4 100.4-21.7 59.5-60.3 156.6-17.6 46.4-43 97.1-25.4 50.7-60.1 93.8-34.9 43-80.6 69.9-45.9 27.1-106.6 27.1zm406.2-16.5q-32 0-51.4-11.7-19.2-11.5-27.6-27.6-8.2-15.9-8.2-29.1 0-55.2 31.4-121.3 31.5-66.2 72.4-131.3 27.6-44.1 56.3-96.4 28.7-52.5 48.5-100.6 19.9-47.9 19.9-79.9 6.6-2.2 9.9-2.2 17.7 0 27.6 20.9 10 21 10 38.7 0 17.6-11.1 46.7-11 29.4-28.7 63.6-24.2 47.4-55.2 98.6-30.9 51.4-56.3 98.8-8.8 17.7-24.2 45.7-15.5 28.2-27.6 57.4-12.2 29.3-12.2 51.4 0 27.6 29.8 27.6 37.6 0 75.5-8.9 38.2-8.8 78-8.8 29.8 0 52.3 5.5 22.7 5.5 23.8 32-3.3-1.1-7.3-1.1-3.7 0-8.1 0-21 0-52.6 4.9-31.3 5-64 11-32.4 6.2-60 11-27.6 5.1-40.9 5.1zm476.9-432.4q-12.2 0-19.9-8.4-7.7-8.2-7.7-19.2 0-16.6 11.5-28.3 11.7-11.4 26-11.4 14.4 0 22.5 9.2 8.4 9.5 6.2 23.9-3.3 14.3-13.9 24.2-10.4 10-24.7 10zm-151.2 435.7q-24.3 0-42-16.1-17.7-15.9-17.7-54.5 0-16.5 3.4-36.4 9.9-51.8 32.4-99.3 22.7-47.4 44.2-82.3 21.6-34.6 28.2-45.6 5.5-11.1 28.7-21.7 23.2-10.3 38.7-10.3 13.2 0 13.2 8.8 0 7.7-5.5 14.3-16.6 26.5-38.2 60-21.4 33.8-41.3 71.3-19.9 37.5-33.1 73.9-13.3 36.4-13.3 67.3 0 16.6 6 26.5 6.2 9.9 22.7 9.9 17.7 0 40.9-17.2 23.2-17 44.6-38.6 21.6-21.4 31.6-33.5 11-12.2 21.4-23.2 10.6-11 19.4-23.2 3.3-3.3 5.5-3.3 6.6 0 6.6 9.9 0 5.6-4.4 10-12.1 14.3-24.3 29.1-12.1 15-25.3 29.3-17.7 21-39.8 43.1-22.1 22-47.5 36.8-25.3 15-55.1 15z"/>
																				</g>
																			</g>
																		</g>
																	</g>
																</g>
															</g>
														</g>
													</g>
												</g>
											</g>
										</g>
									</g>
								</g>
							</g>
							<g id="Layer">
								<path id="Layer" class="s2" d="m821.8 229c288 0 521.4 233.3 521.4 521 0 287.7-233.4 521-521.4 521-133.7 0-255.7-50.3-348-133.1h44.1c83.7 65.7 189.3 104.8 303.9 104.8 272.3 0 493.1-220.6 493.1-492.7 0-272.1-220.8-492.7-493.1-492.7-114.6 0-220.2 39.1-303.9 104.8h-44.1c92.3-82.8 214.3-133.1 348-133.1z"/>
							</g>
						</g>
					</g>
				</g>
				<path id="Layer" class="s3" d="m-215 229h1668.3v1042h-1668.3z"/>
			</g>
		</g>
	</g>
</svg>